<svg width="18" height="18" viewBox="0 0 18 18" fill="none" xmlns="http://www.w3.org/2000/svg">
<path d="M9 17.3334C4.39751 17.3334 0.666672 13.6026 0.666672 9.00008C0.666672 4.39758 4.39751 0.666748 9 0.666748C13.6025 0.666748 17.3333 4.39758 17.3333 9.00008C17.3333 13.6026 13.6025 17.3334 9 17.3334ZM9 15.6667C10.7681 15.6667 12.4638 14.9644 13.7141 13.7141C14.9643 12.4639 15.6667 10.7682 15.6667 9.00008C15.6667 7.23197 14.9643 5.53628 13.7141 4.28604C12.4638 3.03579 10.7681 2.33341 9 2.33341C7.23189 2.33341 5.5362 3.03579 4.28596 4.28604C3.03572 5.53628 2.33334 7.23197 2.33334 9.00008C2.33334 10.7682 3.03572 12.4639 4.28596 13.7141C5.5362 14.9644 7.23189 15.6667 9 15.6667ZM8.16667 11.5001H9.83334V13.1667H8.16667V11.5001ZM9.83334 10.1292V10.6667H8.16667V9.41675C8.16667 9.19573 8.25447 8.98377 8.41075 8.82749C8.56703 8.67121 8.77899 8.58341 9 8.58341C9.23674 8.5834 9.4686 8.51616 9.66861 8.38952C9.86862 8.26288 10.0286 8.08205 10.1298 7.86807C10.2311 7.65408 10.2695 7.41574 10.2406 7.18078C10.2117 6.94582 10.1166 6.7239 9.96653 6.54084C9.81643 6.35778 9.61743 6.22111 9.39269 6.14672C9.16795 6.07234 8.9267 6.0633 8.69703 6.12067C8.46735 6.17803 8.25868 6.29944 8.09531 6.47076C7.93194 6.64208 7.82057 6.85627 7.77417 7.08841L6.13917 6.76091C6.24053 6.25432 6.4746 5.78372 6.81744 5.39724C7.16028 5.01075 7.5996 4.72223 8.0905 4.56118C8.58139 4.40013 9.10624 4.37232 9.61141 4.48059C10.1166 4.58887 10.5839 4.82934 10.9657 5.17743C11.3475 5.52553 11.6299 5.96875 11.7843 6.4618C11.9386 6.95485 11.9592 7.48003 11.8441 7.98367C11.7289 8.48731 11.482 8.95133 11.1288 9.3283C10.7755 9.70527 10.3284 9.98167 9.83334 10.1292Z" fill="white"/>
</svg>
