<svg width="30" height="31" viewBox="0 0 30 31" fill="none" xmlns="http://www.w3.org/2000/svg">
<rect x="0.5" y="1" width="29" height="29" rx="4.5" stroke="#939393"/>
<path d="M18.8421 19.8421C19.2609 19.8421 19.6625 20.0085 19.9586 20.3046C20.2547 20.6007 20.4211 21.0023 20.4211 21.4211C20.4211 21.8398 20.2547 22.2414 19.9586 22.5375C19.6625 22.8336 19.2609 23 18.8421 23C18.4233 23 18.0217 22.8336 17.7256 22.5375C17.4295 22.2414 17.2632 21.8398 17.2632 21.4211C17.2632 21.0023 17.4295 20.6007 17.7256 20.3046C18.0217 20.0085 18.4233 19.8421 18.8421 19.8421ZM18.8421 20.6316C18.6327 20.6316 18.4319 20.7148 18.2839 20.8628C18.1358 21.0109 18.0526 21.2117 18.0526 21.4211C18.0526 21.6304 18.1358 21.8312 18.2839 21.9793C18.4319 22.1274 18.6327 22.2105 18.8421 22.2105C19.0515 22.2105 19.2523 22.1274 19.4003 21.9793C19.5484 21.8312 19.6316 21.6304 19.6316 21.4211C19.6316 21.2117 19.5484 21.0109 19.4003 20.8628C19.2523 20.7148 19.0515 20.6316 18.8421 20.6316ZM11.7368 19.8421C12.1556 19.8421 12.5572 20.0085 12.8533 20.3046C13.1494 20.6007 13.3158 21.0023 13.3158 21.4211C13.3158 21.8398 13.1494 22.2414 12.8533 22.5375C12.5572 22.8336 12.1556 23 11.7368 23C11.3181 23 10.9165 22.8336 10.6204 22.5375C10.3242 22.2414 10.1579 21.8398 10.1579 21.4211C10.1579 21.0023 10.3242 20.6007 10.6204 20.3046C10.9165 20.0085 11.3181 19.8421 11.7368 19.8421ZM11.7368 20.6316C11.5275 20.6316 11.3267 20.7148 11.1786 20.8628C11.0305 21.0109 10.9474 21.2117 10.9474 21.4211C10.9474 21.6304 11.0305 21.8312 11.1786 21.9793C11.3267 22.1274 11.5275 22.2105 11.7368 22.2105C11.9462 22.2105 12.147 22.1274 12.2951 21.9793C12.4431 21.8312 12.5263 21.6304 12.5263 21.4211C12.5263 21.2117 12.4431 21.0109 12.2951 20.8628C12.147 20.7148 11.9462 20.6316 11.7368 20.6316ZM20.4211 10.3684H9.58158L11.5947 15.1053H18.0526C18.3132 15.1053 18.5421 14.9789 18.6842 14.7895L21.0526 11.6316C21.1553 11.4974 21.2105 11.3316 21.2105 11.1579C21.2105 10.9485 21.1274 10.7477 20.9793 10.5997C20.8312 10.4516 20.6304 10.3684 20.4211 10.3684ZM18.0526 15.8947H11.6342L11.0263 17.1263L10.9474 17.4737C10.9474 17.6831 11.0305 17.8839 11.1786 18.0319C11.3267 18.18 11.5275 18.2632 11.7368 18.2632H20.4211V19.0526H11.7368C11.3181 19.0526 10.9165 18.8863 10.6204 18.5902C10.3242 18.2941 10.1579 17.8924 10.1579 17.4737C10.1577 17.2058 10.2256 16.9423 10.3553 16.7079L10.9237 15.5474L8.05789 8.78947H7V8H8.57895L9.25 9.57895H20.4211C20.8398 9.57895 21.2414 9.7453 21.5375 10.0414C21.8336 10.3375 22 10.7391 22 11.1579C22 11.5526 21.8658 11.8842 21.6447 12.1526L19.3474 15.2237C19.0632 15.6263 18.5895 15.8947 18.0526 15.8947Z" fill="#B3B3B3"/>
</svg>
