<svg width="15" height="14" viewBox="0 0 15 14" fill="none" xmlns="http://www.w3.org/2000/svg">
<path d="M6.63418 1.51086C6.79231 1.37695 6.9928 1.30347 7.20001 1.30347C7.40722 1.30347 7.60772 1.37695 7.76585 1.51086L12.1408 5.22261C12.2377 5.30474 12.3156 5.40698 12.3689 5.52222C12.4223 5.63746 12.45 5.76294 12.45 5.88994V11.375C12.45 11.6071 12.3578 11.8296 12.1937 11.9937C12.0296 12.1578 11.8071 12.25 11.575 12.25H8.22085C8.10481 12.25 7.99353 12.2039 7.91149 12.1219C7.82944 12.0398 7.78335 11.9286 7.78335 11.8125V8.16669H6.61668V11.8125C6.61668 11.9286 6.57058 12.0398 6.48854 12.1219C6.40649 12.2039 6.29521 12.25 6.17918 12.25H2.82501C2.59295 12.25 2.37039 12.1578 2.20629 11.9937C2.0422 11.8296 1.95001 11.6071 1.95001 11.375V5.88994C1.95001 5.63328 2.06318 5.38886 2.25918 5.22261L6.63418 1.51086ZM7.20001 2.17819L2.82501 5.88994V11.375H5.74168V7.72919C5.74168 7.61316 5.78777 7.50188 5.86982 7.41983C5.95187 7.33779 6.06315 7.29169 6.17918 7.29169H8.22085C8.33688 7.29169 8.44816 7.33779 8.5302 7.41983C8.61225 7.50188 8.65835 7.61316 8.65835 7.72919V11.375H11.575V5.88994L7.20001 2.17819Z" fill="#F6373F"/>
</svg>
