<svg width="15" height="14" viewBox="0 0 15 14" fill="none" xmlns="http://www.w3.org/2000/svg">
<g clip-path="url(#clip0_316_927)">
<path d="M2.50237 1.80208C2.57215 1.83944 2.63049 1.89504 2.67117 1.96294C2.71185 2.03084 2.73335 2.10851 2.73337 2.18767V4.9585H3.17087C3.2869 4.9585 3.39818 5.00459 3.48023 5.08664C3.56227 5.16869 3.60837 5.27997 3.60837 5.396C3.60837 5.51203 3.56227 5.62331 3.48023 5.70536C3.39818 5.78741 3.2869 5.8335 3.17087 5.8335H1.42087C1.30484 5.8335 1.19356 5.78741 1.11151 5.70536C1.02946 5.62331 0.983368 5.51203 0.983368 5.396C0.983368 5.27997 1.02946 5.16869 1.11151 5.08664C1.19356 5.00459 1.30484 4.9585 1.42087 4.9585H1.85837V3.00492L1.66353 3.135C1.56699 3.19784 1.44955 3.22007 1.33671 3.19686C1.22388 3.17364 1.12475 3.10686 1.06085 3.01101C0.996947 2.91516 0.97343 2.79797 0.995401 2.68489C1.01737 2.57181 1.08306 2.47195 1.1782 2.407L2.0532 1.82367C2.11911 1.77975 2.1957 1.75455 2.2748 1.75075C2.3539 1.74695 2.43256 1.76469 2.50237 1.80208ZM5.5042 3.2085C5.38817 3.2085 5.27689 3.25459 5.19484 3.33664C5.1128 3.41869 5.0667 3.52997 5.0667 3.646C5.0667 3.76203 5.1128 3.87331 5.19484 3.95536C5.27689 4.03741 5.38817 4.0835 5.5042 4.0835H12.2125C12.3286 4.0835 12.4398 4.03741 12.5219 3.95536C12.6039 3.87331 12.65 3.76203 12.65 3.646C12.65 3.52997 12.6039 3.41869 12.5219 3.33664C12.4398 3.25459 12.3286 3.2085 12.2125 3.2085H5.5042ZM5.5042 6.7085C5.38817 6.7085 5.27689 6.75459 5.19484 6.83664C5.1128 6.91869 5.0667 7.02997 5.0667 7.146C5.0667 7.26203 5.1128 7.37331 5.19484 7.45536C5.27689 7.53741 5.38817 7.5835 5.5042 7.5835H12.2125C12.3286 7.5835 12.4398 7.53741 12.5219 7.45536C12.6039 7.37331 12.65 7.26203 12.65 7.146C12.65 7.02997 12.6039 6.91869 12.5219 6.83664C12.4398 6.75459 12.3286 6.7085 12.2125 6.7085H5.5042ZM5.5042 10.2085C5.38817 10.2085 5.27689 10.2546 5.19484 10.3366C5.1128 10.4187 5.0667 10.53 5.0667 10.646C5.0667 10.762 5.1128 10.8733 5.19484 10.9554C5.27689 11.0374 5.38817 11.0835 5.5042 11.0835H12.2125C12.3286 11.0835 12.4398 11.0374 12.5219 10.9554C12.6039 10.8733 12.65 10.762 12.65 10.646C12.65 10.53 12.6039 10.4187 12.5219 10.3366C12.4398 10.2546 12.3286 10.2085 12.2125 10.2085H5.5042ZM3.60837 9.18767C3.60837 8.777 3.45028 8.4375 3.18837 8.20417C2.94098 7.98927 2.62355 7.87226 2.29587 7.87517C1.98378 7.87517 1.6577 7.979 1.40337 8.20475C1.14145 8.4375 0.983368 8.77758 0.983368 9.18767C0.983368 9.3037 1.02946 9.41498 1.11151 9.49703C1.19356 9.57907 1.30484 9.62517 1.42087 9.62517C1.5369 9.62517 1.64818 9.57907 1.73023 9.49703C1.81227 9.41498 1.85837 9.3037 1.85837 9.18767C1.85837 9.015 1.91903 8.917 1.98495 8.85867C2.0721 8.78615 2.18253 8.74762 2.29587 8.75017C2.42128 8.75017 2.5327 8.79217 2.60678 8.85808C2.6727 8.917 2.73337 9.01442 2.73337 9.18767C2.73337 9.38133 2.69312 9.46767 2.61087 9.57092C2.5572 9.63683 2.48487 9.71092 2.37578 9.81533L2.29003 9.897C2.20137 9.981 2.09753 10.0796 1.9867 10.191L1.1117 11.066C1.02963 11.148 0.98347 11.2592 0.983368 11.3752V11.521C0.983368 11.7625 1.17937 11.9585 1.42087 11.9585H3.3167C3.43273 11.9585 3.54401 11.9124 3.62606 11.8304C3.70811 11.7483 3.7542 11.637 3.7542 11.521C3.7542 11.405 3.70811 11.2937 3.62606 11.2116C3.54401 11.1296 3.43273 11.0835 3.3167 11.0835H2.33087L2.60503 10.8093C2.7077 10.7067 2.79928 10.6203 2.88503 10.5381L2.98128 10.4471C3.09258 10.3439 3.19702 10.2337 3.29395 10.1169C3.50278 9.85617 3.60837 9.57733 3.60837 9.18767Z" fill="white"/>
</g>
<defs>
<clipPath id="clip0_316_927">
<rect width="14" height="14" fill="white" transform="translate(0.400024)"/>
</clipPath>
</defs>
</svg>
