<svg width="11" height="12" viewBox="0 0 11 12" fill="none" xmlns="http://www.w3.org/2000/svg">
<g clip-path="url(#clip0_216_444)">
<path d="M2.1 8.93992C2.79588 8.93992 3.36 8.3758 3.36 7.67992C3.36 6.98404 2.79588 6.41992 2.1 6.41992C1.40412 6.41992 0.839996 6.98404 0.839996 7.67992C0.839996 8.3758 1.40412 8.93992 2.1 8.93992Z" stroke="white" stroke-width="0.84" stroke-linecap="round" stroke-linejoin="round"/>
<path d="M7.97999 8.93992C8.67587 8.93992 9.23999 8.3758 9.23999 7.67992C9.23999 6.98404 8.67587 6.41992 7.97999 6.41992C7.28411 6.41992 6.71999 6.98404 6.71999 7.67992C6.71999 8.3758 7.28411 8.93992 7.97999 8.93992Z" stroke="white" stroke-width="0.84" stroke-linecap="round" stroke-linejoin="round"/>
<path d="M3.14999 6.83991L4.82999 5.15991M3.14999 6.83991H5.24999L6.92999 5.15991H2.51999L3.14999 6.83991Z" stroke="white" stroke-width="0.84" stroke-linecap="round" stroke-linejoin="round"/>
<path d="M5.45999 3.47998H6.29999L6.92999 4.73998L7.76999 6.41998" stroke="white" stroke-width="0.84" stroke-linecap="round" stroke-linejoin="round"/>
</g>
<defs>
<clipPath id="clip0_216_444">
<rect width="10.08" height="10.08" fill="white" transform="translate(0 0.959961)"/>
</clipPath>
</defs>
</svg>
