<svg width="15" height="14" viewBox="0 0 15 14" fill="none" xmlns="http://www.w3.org/2000/svg">
<g clip-path="url(#clip0_316_930)">
<path d="M7.80002 8.75C8.76654 8.75 9.55002 7.96652 9.55002 7C9.55002 6.03347 8.76654 5.25 7.80002 5.25C6.83349 5.25 6.05002 6.03347 6.05002 7C6.05002 7.96652 6.83349 8.75 7.80002 8.75Z" stroke="white" stroke-width="1.5" stroke-linecap="round" stroke-linejoin="round"/>
<path d="M12.2464 6.06407L11.6061 4.51788L12.4667 3.50008L11.3 2.33341L10.2878 3.19847L8.70873 2.5491L8.3456 1.16675H7.20559L6.83698 2.56741L5.29425 3.21772L4.30001 2.33341L3.13334 3.50008L3.98114 4.54358L3.35063 6.09376L1.96667 6.41675V7.58342L3.36732 7.96579L4.01753 9.50824L3.13334 10.5001L4.30001 11.6667L5.34485 10.8153L6.86493 11.4406L7.21668 12.8334H8.38334L8.73597 11.4411L10.2822 10.8008C10.5399 10.985 11.3 11.6667 11.3 11.6667L12.4667 10.5001L11.601 9.4789L12.2415 7.93225L13.6333 7.57011L13.6333 6.41675L12.2464 6.06407Z" stroke="white" stroke-width="1.5" stroke-linecap="round" stroke-linejoin="round"/>
</g>
<defs>
<clipPath id="clip0_316_930">
<rect width="14" height="14" fill="white" transform="translate(0.800018)"/>
</clipPath>
</defs>
</svg>
