<svg width="12" height="10" viewBox="0 0 12 10" fill="none" xmlns="http://www.w3.org/2000/svg">
<path d="M5.45999 0.434097C5.51502 0.339677 5.59383 0.261334 5.68859 0.206884C5.78334 0.152434 5.89071 0.123779 5.99999 0.123779C6.10927 0.123779 6.21665 0.152434 6.3114 0.206884C6.40615 0.261334 6.48497 0.339677 6.53999 0.434097L7.93749 2.8331L10.6515 3.4211C10.7582 3.4443 10.8571 3.49507 10.9381 3.56836C11.0191 3.64165 11.0795 3.7349 11.1132 3.83881C11.147 3.94271 11.1529 4.05365 11.1304 4.16056C11.1079 4.26746 11.0578 4.3666 10.985 4.4481L9.13499 6.5186L9.41499 9.2811C9.42604 9.38988 9.40835 9.49965 9.36371 9.59945C9.31906 9.69926 9.24901 9.78561 9.16056 9.84987C9.0721 9.91414 8.96833 9.95408 8.85962 9.9657C8.7509 9.97732 8.64103 9.96022 8.54099 9.9161L5.99999 8.7961L3.45899 9.9161C3.35895 9.96022 3.24909 9.97732 3.14037 9.9657C3.03165 9.95408 2.92788 9.91414 2.83943 9.84987C2.75097 9.78561 2.68092 9.69926 2.63628 9.59945C2.59163 9.49965 2.57395 9.38988 2.58499 9.2811L2.86499 6.5186L1.01499 4.4486C0.942106 4.36711 0.89187 4.26793 0.869299 4.16096C0.846729 4.05398 0.852613 3.94296 0.886364 3.83897C0.920116 3.73499 0.980554 3.64167 1.06165 3.56835C1.14274 3.49502 1.24164 3.44425 1.34849 3.4211L4.06249 2.8331L5.45999 0.434097Z" fill="#FFA800"/>
</svg>
